<svg width="45" height="43" viewBox="0 0 45 43" fill="none" xmlns="http://www.w3.org/2000/svg">
<path d="M24 2.00001C24 1.6287 23.842 1.27261 23.5607 1.01006C23.2794 0.747506 22.8978 0.600006 22.5 0.600006C22.1022 0.600006 21.7206 0.747506 21.4393 1.01006C21.158 1.27261 21 1.6287 21 2.00001V20.2H1.5C1.10218 20.2 0.720645 20.3475 0.43934 20.6101C0.158036 20.8726 0 21.2287 0 21.6C0 21.9713 0.158036 22.3274 0.43934 22.59C0.720645 22.8525 1.10218 23 1.5 23H21V41.2C21 41.5713 21.158 41.9274 21.4393 42.19C21.7206 42.4525 22.1022 42.6 22.5 42.6C22.8978 42.6 23.2794 42.4525 23.5607 42.19C23.842 41.9274 24 41.5713 24 41.2V23H43.5C43.8978 23 44.2794 22.8525 44.5607 22.59C44.842 22.3274 45 21.9713 45 21.6C45 21.2287 44.842 20.8726 44.5607 20.6101C44.2794 20.3475 43.8978 20.2 43.5 20.2H24V2.00001Z" fill="#8D99FF"/>
</svg>
